<mxfile host="Electron" modified="2023-04-14T11:42:43.283Z" agent="Mozilla/5.0 (X11; Linux x86_64) AppleWebKit/537.36 (KHTML, like Gecko) draw.io/21.1.2 Chrome/106.0.5249.199 Electron/21.4.3 Safari/537.36" etag="uuOmgaDKfVA0_ydtO79C" version="21.1.2" type="device" pages="3">
  <diagram name="Page-1" id="WNZ-mMHnSD49aeuzttNt">
    <mxGraphModel dx="1247" dy="733" grid="1" gridSize="10" guides="1" tooltips="1" connect="1" arrows="1" fold="1" page="1" pageScale="1" pageWidth="850" pageHeight="1100" math="0" shadow="0">
      <root>
        <mxCell id="0" />
        <mxCell id="1" parent="0" />
        <mxCell id="JrhxfnZ-ohJpkWJtEh9b-1" value="" style="rounded=0;whiteSpace=wrap;html=1;" vertex="1" parent="1">
          <mxGeometry x="100" y="50" width="470" height="280" as="geometry" />
        </mxCell>
        <mxCell id="ClZNCnKhov6xXpUsaPHH-17" style="edgeStyle=orthogonalEdgeStyle;rounded=0;orthogonalLoop=1;jettySize=auto;html=1;entryX=1;entryY=0.5;entryDx=0;entryDy=0;" edge="1" parent="1" source="ClZNCnKhov6xXpUsaPHH-1" target="ClZNCnKhov6xXpUsaPHH-11">
          <mxGeometry relative="1" as="geometry" />
        </mxCell>
        <mxCell id="ClZNCnKhov6xXpUsaPHH-18" style="edgeStyle=orthogonalEdgeStyle;rounded=0;orthogonalLoop=1;jettySize=auto;html=1;entryX=1;entryY=0.5;entryDx=0;entryDy=0;" edge="1" parent="1" source="ClZNCnKhov6xXpUsaPHH-1" target="ClZNCnKhov6xXpUsaPHH-12">
          <mxGeometry relative="1" as="geometry" />
        </mxCell>
        <mxCell id="ClZNCnKhov6xXpUsaPHH-19" style="edgeStyle=orthogonalEdgeStyle;rounded=0;orthogonalLoop=1;jettySize=auto;html=1;entryX=1;entryY=0.5;entryDx=0;entryDy=0;" edge="1" parent="1" source="ClZNCnKhov6xXpUsaPHH-1" target="ClZNCnKhov6xXpUsaPHH-13">
          <mxGeometry relative="1" as="geometry" />
        </mxCell>
        <mxCell id="ClZNCnKhov6xXpUsaPHH-20" style="edgeStyle=orthogonalEdgeStyle;rounded=0;orthogonalLoop=1;jettySize=auto;html=1;entryX=0;entryY=0.5;entryDx=0;entryDy=0;" edge="1" parent="1" source="ClZNCnKhov6xXpUsaPHH-1" target="ClZNCnKhov6xXpUsaPHH-14">
          <mxGeometry relative="1" as="geometry" />
        </mxCell>
        <mxCell id="ClZNCnKhov6xXpUsaPHH-21" style="edgeStyle=orthogonalEdgeStyle;rounded=0;orthogonalLoop=1;jettySize=auto;html=1;entryX=0;entryY=0.5;entryDx=0;entryDy=0;" edge="1" parent="1" source="ClZNCnKhov6xXpUsaPHH-1" target="ClZNCnKhov6xXpUsaPHH-15">
          <mxGeometry relative="1" as="geometry" />
        </mxCell>
        <mxCell id="ClZNCnKhov6xXpUsaPHH-1" value="Гость" style="shape=umlActor;verticalLabelPosition=bottom;verticalAlign=top;html=1;outlineConnect=0;" vertex="1" parent="1">
          <mxGeometry x="320" y="160" width="30" height="60" as="geometry" />
        </mxCell>
        <mxCell id="ClZNCnKhov6xXpUsaPHH-11" value="Получение информации о победителе гонки" style="ellipse;whiteSpace=wrap;html=1;" vertex="1" parent="1">
          <mxGeometry x="110" y="60" width="130" height="80" as="geometry" />
        </mxCell>
        <mxCell id="ClZNCnKhov6xXpUsaPHH-12" value="Получение информации о дате и месте проведения гонки" style="ellipse;whiteSpace=wrap;html=1;" vertex="1" parent="1">
          <mxGeometry x="110" y="150" width="130" height="80" as="geometry" />
        </mxCell>
        <mxCell id="ClZNCnKhov6xXpUsaPHH-13" value="Получение информации о гонщиках текущего сезона" style="ellipse;whiteSpace=wrap;html=1;" vertex="1" parent="1">
          <mxGeometry x="110" y="240" width="130" height="80" as="geometry" />
        </mxCell>
        <mxCell id="ClZNCnKhov6xXpUsaPHH-14" value="Регистрация" style="ellipse;whiteSpace=wrap;html=1;" vertex="1" parent="1">
          <mxGeometry x="430" y="100" width="130" height="50" as="geometry" />
        </mxCell>
        <mxCell id="ClZNCnKhov6xXpUsaPHH-15" value="Авторизация" style="ellipse;whiteSpace=wrap;html=1;" vertex="1" parent="1">
          <mxGeometry x="430" y="230" width="130" height="50" as="geometry" />
        </mxCell>
      </root>
    </mxGraphModel>
  </diagram>
  <diagram id="kx6D265Ow3IvWxUYgv_-" name="Page-2">
    <mxGraphModel dx="1434" dy="843" grid="1" gridSize="10" guides="1" tooltips="1" connect="1" arrows="1" fold="1" page="1" pageScale="1" pageWidth="850" pageHeight="1100" math="0" shadow="0">
      <root>
        <mxCell id="0" />
        <mxCell id="1" parent="0" />
        <mxCell id="XTl-BMb7wU4U85-NUkaj-1" value="" style="rounded=0;whiteSpace=wrap;html=1;" vertex="1" parent="1">
          <mxGeometry x="70" y="50" width="500" height="280" as="geometry" />
        </mxCell>
        <mxCell id="XTl-BMb7wU4U85-NUkaj-2" style="edgeStyle=orthogonalEdgeStyle;rounded=0;orthogonalLoop=1;jettySize=auto;html=1;entryX=1;entryY=0.5;entryDx=0;entryDy=0;" edge="1" parent="1" source="XTl-BMb7wU4U85-NUkaj-7" target="XTl-BMb7wU4U85-NUkaj-8">
          <mxGeometry relative="1" as="geometry" />
        </mxCell>
        <mxCell id="XTl-BMb7wU4U85-NUkaj-3" style="edgeStyle=orthogonalEdgeStyle;rounded=0;orthogonalLoop=1;jettySize=auto;html=1;entryX=1;entryY=0.5;entryDx=0;entryDy=0;" edge="1" parent="1" source="XTl-BMb7wU4U85-NUkaj-7" target="XTl-BMb7wU4U85-NUkaj-9">
          <mxGeometry relative="1" as="geometry" />
        </mxCell>
        <mxCell id="XTl-BMb7wU4U85-NUkaj-4" style="edgeStyle=orthogonalEdgeStyle;rounded=0;orthogonalLoop=1;jettySize=auto;html=1;entryX=1;entryY=0.5;entryDx=0;entryDy=0;" edge="1" parent="1" source="XTl-BMb7wU4U85-NUkaj-7" target="XTl-BMb7wU4U85-NUkaj-10">
          <mxGeometry relative="1" as="geometry" />
        </mxCell>
        <mxCell id="XTl-BMb7wU4U85-NUkaj-5" style="edgeStyle=orthogonalEdgeStyle;rounded=0;orthogonalLoop=1;jettySize=auto;html=1;entryX=0;entryY=0.5;entryDx=0;entryDy=0;" edge="1" parent="1" source="XTl-BMb7wU4U85-NUkaj-7" target="XTl-BMb7wU4U85-NUkaj-11">
          <mxGeometry relative="1" as="geometry" />
        </mxCell>
        <mxCell id="XTl-BMb7wU4U85-NUkaj-7" value="Авторизованный &lt;br&gt;пользователь" style="shape=umlActor;verticalLabelPosition=bottom;verticalAlign=top;html=1;outlineConnect=0;" vertex="1" parent="1">
          <mxGeometry x="320" y="160" width="30" height="60" as="geometry" />
        </mxCell>
        <mxCell id="XTl-BMb7wU4U85-NUkaj-8" value="Получение полной информации о Гран-При" style="ellipse;whiteSpace=wrap;html=1;" vertex="1" parent="1">
          <mxGeometry x="80" y="60" width="160" height="80" as="geometry" />
        </mxCell>
        <mxCell id="XTl-BMb7wU4U85-NUkaj-9" value="Получение информации о всех гонщиках и командах" style="ellipse;whiteSpace=wrap;html=1;" vertex="1" parent="1">
          <mxGeometry x="80" y="150" width="160" height="80" as="geometry" />
        </mxCell>
        <mxCell id="XTl-BMb7wU4U85-NUkaj-10" value="Получение информации о трассах" style="ellipse;whiteSpace=wrap;html=1;" vertex="1" parent="1">
          <mxGeometry x="80" y="240" width="160" height="80" as="geometry" />
        </mxCell>
        <mxCell id="XTl-BMb7wU4U85-NUkaj-11" value="Авторизация" style="ellipse;whiteSpace=wrap;html=1;" vertex="1" parent="1">
          <mxGeometry x="430" y="165" width="130" height="50" as="geometry" />
        </mxCell>
      </root>
    </mxGraphModel>
  </diagram>
  <diagram id="dX2_cvqMyvnhozVG6Kvs" name="Page-3">
    <mxGraphModel dx="1434" dy="843" grid="1" gridSize="10" guides="1" tooltips="1" connect="1" arrows="1" fold="1" page="1" pageScale="1" pageWidth="850" pageHeight="1100" math="0" shadow="0">
      <root>
        <mxCell id="0" />
        <mxCell id="1" parent="0" />
        <mxCell id="OX_9wxLjYL73Qv7kGcx4-1" value="" style="rounded=0;whiteSpace=wrap;html=1;" vertex="1" parent="1">
          <mxGeometry x="70" y="50" width="530" height="440" as="geometry" />
        </mxCell>
        <mxCell id="OX_9wxLjYL73Qv7kGcx4-2" style="edgeStyle=orthogonalEdgeStyle;rounded=0;orthogonalLoop=1;jettySize=auto;html=1;entryX=1;entryY=0.5;entryDx=0;entryDy=0;" edge="1" parent="1" source="OX_9wxLjYL73Qv7kGcx4-6" target="OX_9wxLjYL73Qv7kGcx4-7">
          <mxGeometry relative="1" as="geometry" />
        </mxCell>
        <mxCell id="OX_9wxLjYL73Qv7kGcx4-3" style="edgeStyle=orthogonalEdgeStyle;rounded=0;orthogonalLoop=1;jettySize=auto;html=1;entryX=1;entryY=0.5;entryDx=0;entryDy=0;" edge="1" parent="1" source="OX_9wxLjYL73Qv7kGcx4-6" target="OX_9wxLjYL73Qv7kGcx4-8">
          <mxGeometry relative="1" as="geometry" />
        </mxCell>
        <mxCell id="OX_9wxLjYL73Qv7kGcx4-4" style="edgeStyle=orthogonalEdgeStyle;rounded=0;orthogonalLoop=1;jettySize=auto;html=1;entryX=1;entryY=0.5;entryDx=0;entryDy=0;" edge="1" parent="1" source="OX_9wxLjYL73Qv7kGcx4-6" target="OX_9wxLjYL73Qv7kGcx4-9">
          <mxGeometry relative="1" as="geometry" />
        </mxCell>
        <mxCell id="OX_9wxLjYL73Qv7kGcx4-5" style="edgeStyle=orthogonalEdgeStyle;rounded=0;orthogonalLoop=1;jettySize=auto;html=1;entryX=0;entryY=0.5;entryDx=0;entryDy=0;" edge="1" parent="1" source="OX_9wxLjYL73Qv7kGcx4-6" target="OX_9wxLjYL73Qv7kGcx4-10">
          <mxGeometry relative="1" as="geometry">
            <Array as="points">
              <mxPoint x="390" y="260" />
              <mxPoint x="390" y="113" />
            </Array>
          </mxGeometry>
        </mxCell>
        <mxCell id="OX_9wxLjYL73Qv7kGcx4-19" style="edgeStyle=orthogonalEdgeStyle;rounded=0;orthogonalLoop=1;jettySize=auto;html=1;entryX=0;entryY=0.5;entryDx=0;entryDy=0;" edge="1" parent="1" source="OX_9wxLjYL73Qv7kGcx4-6" target="OX_9wxLjYL73Qv7kGcx4-15">
          <mxGeometry relative="1" as="geometry" />
        </mxCell>
        <mxCell id="OX_9wxLjYL73Qv7kGcx4-20" style="edgeStyle=orthogonalEdgeStyle;rounded=0;orthogonalLoop=1;jettySize=auto;html=1;entryX=0;entryY=0.5;entryDx=0;entryDy=0;" edge="1" parent="1" source="OX_9wxLjYL73Qv7kGcx4-6" target="OX_9wxLjYL73Qv7kGcx4-16">
          <mxGeometry relative="1" as="geometry" />
        </mxCell>
        <mxCell id="OX_9wxLjYL73Qv7kGcx4-21" style="edgeStyle=orthogonalEdgeStyle;rounded=0;orthogonalLoop=1;jettySize=auto;html=1;entryX=0;entryY=0.5;entryDx=0;entryDy=0;" edge="1" parent="1" source="OX_9wxLjYL73Qv7kGcx4-6" target="OX_9wxLjYL73Qv7kGcx4-17">
          <mxGeometry relative="1" as="geometry" />
        </mxCell>
        <mxCell id="OX_9wxLjYL73Qv7kGcx4-22" style="edgeStyle=orthogonalEdgeStyle;rounded=0;orthogonalLoop=1;jettySize=auto;html=1;entryX=0;entryY=0.5;entryDx=0;entryDy=0;" edge="1" parent="1" source="OX_9wxLjYL73Qv7kGcx4-6" target="OX_9wxLjYL73Qv7kGcx4-18">
          <mxGeometry relative="1" as="geometry" />
        </mxCell>
        <mxCell id="OX_9wxLjYL73Qv7kGcx4-23" style="edgeStyle=orthogonalEdgeStyle;rounded=0;orthogonalLoop=1;jettySize=auto;html=1;entryX=1;entryY=0.5;entryDx=0;entryDy=0;" edge="1" parent="1" source="OX_9wxLjYL73Qv7kGcx4-6" target="OX_9wxLjYL73Qv7kGcx4-13">
          <mxGeometry relative="1" as="geometry" />
        </mxCell>
        <mxCell id="OX_9wxLjYL73Qv7kGcx4-24" style="edgeStyle=orthogonalEdgeStyle;rounded=0;orthogonalLoop=1;jettySize=auto;html=1;entryX=1;entryY=0.5;entryDx=0;entryDy=0;" edge="1" parent="1" source="OX_9wxLjYL73Qv7kGcx4-6" target="OX_9wxLjYL73Qv7kGcx4-14">
          <mxGeometry relative="1" as="geometry" />
        </mxCell>
        <mxCell id="OX_9wxLjYL73Qv7kGcx4-6" value="Администратор" style="shape=umlActor;verticalLabelPosition=bottom;verticalAlign=top;html=1;outlineConnect=0;" vertex="1" parent="1">
          <mxGeometry x="320" y="230" width="30" height="60" as="geometry" />
        </mxCell>
        <mxCell id="OX_9wxLjYL73Qv7kGcx4-7" value="Получение полной информации о Гран-При" style="ellipse;whiteSpace=wrap;html=1;" vertex="1" parent="1">
          <mxGeometry x="80" y="60" width="160" height="80" as="geometry" />
        </mxCell>
        <mxCell id="OX_9wxLjYL73Qv7kGcx4-8" value="Получение информации о всех гонщиках и командах" style="ellipse;whiteSpace=wrap;html=1;" vertex="1" parent="1">
          <mxGeometry x="80" y="150" width="160" height="80" as="geometry" />
        </mxCell>
        <mxCell id="OX_9wxLjYL73Qv7kGcx4-9" value="Получение информации о трассах" style="ellipse;whiteSpace=wrap;html=1;" vertex="1" parent="1">
          <mxGeometry x="80" y="240" width="160" height="80" as="geometry" />
        </mxCell>
        <mxCell id="OX_9wxLjYL73Qv7kGcx4-10" value="Авторизация" style="ellipse;whiteSpace=wrap;html=1;" vertex="1" parent="1">
          <mxGeometry x="430" y="83" width="160" height="60" as="geometry" />
        </mxCell>
        <mxCell id="OX_9wxLjYL73Qv7kGcx4-13" value="Добавление информации о Гран-При" style="ellipse;whiteSpace=wrap;html=1;" vertex="1" parent="1">
          <mxGeometry x="80" y="330" width="160" height="70" as="geometry" />
        </mxCell>
        <mxCell id="OX_9wxLjYL73Qv7kGcx4-14" value="Удаление/изменение информации о Гран-При" style="ellipse;whiteSpace=wrap;html=1;" vertex="1" parent="1">
          <mxGeometry x="80" y="410" width="160" height="70" as="geometry" />
        </mxCell>
        <mxCell id="OX_9wxLjYL73Qv7kGcx4-15" value="Добавление новых пилотов" style="ellipse;whiteSpace=wrap;html=1;" vertex="1" parent="1">
          <mxGeometry x="430" y="160" width="160" height="60" as="geometry" />
        </mxCell>
        <mxCell id="OX_9wxLjYL73Qv7kGcx4-16" value="Удаление/изменение информации о пилотах" style="ellipse;whiteSpace=wrap;html=1;" vertex="1" parent="1">
          <mxGeometry x="430" y="240" width="160" height="60" as="geometry" />
        </mxCell>
        <mxCell id="OX_9wxLjYL73Qv7kGcx4-17" value="Добавление новых трасс" style="ellipse;whiteSpace=wrap;html=1;" vertex="1" parent="1">
          <mxGeometry x="430" y="320" width="160" height="60" as="geometry" />
        </mxCell>
        <mxCell id="OX_9wxLjYL73Qv7kGcx4-18" value="Удаление/изменение информации о трассах" style="ellipse;whiteSpace=wrap;html=1;" vertex="1" parent="1">
          <mxGeometry x="430" y="400" width="160" height="60" as="geometry" />
        </mxCell>
      </root>
    </mxGraphModel>
  </diagram>
</mxfile>
